<svg width="1129" height="1129" viewBox="0 0 1129 1129" fill="none" xmlns="http://www.w3.org/2000/svg">
<rect width="1129" height="1129" rx="564.5" fill="#160449"/>
<path d="M169.47 335.339C169.1 335.804 168.855 336.356 168.759 336.942L155.605 417.515C155.473 418.324 155.632 419.154 156.053 419.857L210.948 511.463C211.412 512.238 212.16 512.801 213.033 513.033L408.449 564.889C410.35 565.394 412.29 564.218 412.722 562.3L414.9 552.636C414.953 552.402 415.019 552.171 415.097 551.943L435.449 492.935C436.226 490.683 434.553 488.336 432.171 488.336H418.65C418.436 488.336 418.223 488.316 418.012 488.277L304.225 466.968C303.886 466.904 303.559 466.791 303.253 466.63L224.609 425.396C223.814 424.98 223.212 424.272 222.929 423.421L193.367 334.739C193.21 334.27 193.156 333.772 193.207 333.28L195.317 313.162C195.679 309.714 191.317 307.928 189.156 310.639L169.47 335.339Z" fill="white"/>
<path d="M695.646 488.336C693.245 488.336 691.57 490.717 692.382 492.977L713.536 551.864C713.627 552.117 713.702 552.375 713.761 552.636L715.901 562.135C716.334 564.053 718.273 565.229 720.174 564.724L914.968 513.033C915.841 512.801 916.59 512.238 917.054 511.463L971.948 419.857C972.369 419.154 972.528 418.324 972.396 417.516L959.242 336.942C959.146 336.356 958.902 335.804 958.531 335.339L938.845 310.639C936.685 307.928 932.323 309.715 932.684 313.162L934.794 333.28C934.845 333.772 934.791 334.27 934.635 334.739L905.072 423.421C904.789 424.272 904.187 424.98 903.393 425.396L824.748 466.63C824.443 466.791 824.115 466.904 823.776 466.968L709.989 488.277C709.779 488.316 709.565 488.336 709.351 488.336H695.646Z" fill="white"/>
<path d="M563.468 460.496C564.033 460.352 564.625 460.353 565.189 460.498L673.31 488.303C674.423 488.59 675.322 489.409 675.71 490.49L699.196 555.869L717.515 637.147C717.716 638.037 717.558 638.97 717.076 639.744L659.068 732.844C658.411 733.899 658.065 735.094 658.065 736.311V801.633C658.065 802.328 657.856 803.007 657.465 803.582L624.464 852.131C623.927 852.922 623.567 853.805 623.408 854.728L600.603 986.523C600.44 987.466 599.894 988.3 599.095 988.827L580.711 1000.96C578.65 1002.32 575.869 1001.15 575.398 998.722L572.394 983.268C572.233 982.442 571.778 981.702 571.113 981.187L565.122 976.548C564.897 976.374 564.621 976.279 564.337 976.279C564.054 976.279 563.778 976.374 563.554 976.548L557.562 981.187C556.897 981.702 556.442 982.442 556.282 983.268L553.278 998.722C552.807 1001.15 550.025 1002.32 547.963 1000.96L529.58 988.827C528.781 988.3 528.236 987.466 528.073 986.523L505.268 854.728C505.108 853.805 504.748 852.922 504.21 852.131L471.21 803.582C470.82 803.007 470.61 802.328 470.61 801.633V736.311C470.61 735.094 470.265 733.899 469.608 732.844L411.599 639.744C411.117 638.97 410.959 638.037 411.16 637.147L429.488 555.828L452.012 490.524C452.393 489.421 453.303 488.583 454.434 488.295L563.468 460.496ZM535.581 845.185C533.895 842.416 529.671 843.268 529.19 846.474L526.632 863.533C526.591 863.809 526.583 864.089 526.609 864.367L533.576 939.655C533.612 940.05 533.716 940.435 533.883 940.795L542.03 958.351C543.376 961.252 547.596 960.941 548.501 957.874L552.363 944.794C552.468 944.438 552.516 944.068 552.503 943.697L550.714 889.931C550.705 889.662 550.664 889.393 550.593 889.133L541.159 854.603C541.073 854.29 540.944 853.991 540.775 853.714L535.581 845.185ZM597.997 846.474C597.517 843.269 593.292 842.416 591.606 845.185L586.413 853.714C586.244 853.991 586.115 854.29 586.03 854.603L576.594 889.133C576.523 889.393 576.483 889.662 576.474 889.931L574.685 943.697C574.673 944.068 574.72 944.438 574.825 944.794L578.686 957.874C579.591 960.941 583.812 961.252 585.158 958.351L593.304 940.795C593.471 940.435 593.575 940.05 593.612 939.655L600.58 864.367C600.605 864.089 600.597 863.809 600.555 863.533L597.997 846.474ZM625.65 590.314C588.943 590.314 580.627 609.739 580.582 609.844C580.282 612.998 582.835 615.853 598.609 615.853C598.609 615.853 603.116 609.844 611.378 609.844C618.89 609.844 624.899 615.853 624.899 624.867C624.899 633.88 618.89 639.889 609.876 639.889C594.854 639.889 589.595 627.871 589.595 627.871C580.582 627.871 576.076 632.378 576.076 638.386C576.076 648.902 590.347 663.174 617.387 663.175C643.677 663.175 661.704 645.147 661.705 624.867C661.705 605.337 646.682 590.314 625.65 590.314ZM546.599 636.134C544.045 643.344 540.59 648.151 496.273 660.921H536.834C548.101 660.921 551.106 662.424 555.613 662.424C560.871 662.424 563.875 659.419 564.626 653.41L567.631 627.871C567.631 627.27 567.781 626.819 567.781 626.219C567.781 621.261 564.175 618.857 552.608 618.857L546.599 636.134ZM542.994 557.264C531.576 557.264 523.164 566.428 523.164 576.944C526.769 578.597 529.323 582.353 529.323 587.31C529.322 597.826 519.558 606.84 519.558 606.84L489.513 638.386C487.26 640.64 484.255 643.645 484.255 649.654C484.255 655.352 487.698 658.206 487.71 658.217L539.087 620.36C539.087 620.36 566.879 602.332 566.879 582.052C566.879 567.63 555.312 557.264 542.994 557.264ZM521.812 553.809C508.914 555.009 500.058 558.754 500.029 558.766H495.522C492.517 558.766 489.814 561.021 489.513 564.776L486.508 597.075C486.517 597.079 492.522 600.079 498.527 600.079C502.282 600.079 503.634 597.826 505.287 593.319L510.394 578.897C514.6 567.18 517.305 558.767 521.812 553.809ZM585.088 555.762L581.934 594.07C602.365 590.314 606.121 577.545 606.121 577.545L645.931 579.799C651.94 579.798 654.944 576.794 654.944 570.785V555.762H585.088ZM453.3 553.765C453.273 553.797 448.59 559.292 447.768 564.181C446.841 569.698 450.411 574.71 458.379 576.05C463.283 576.874 467.781 576.369 467.781 576.369L473.421 561.559C473.421 561.559 468.111 559.406 468.419 557.567C468.728 555.728 474.776 542.247 474.776 542.247L466.199 537.024L453.3 553.765Z" fill="white"/>
<path d="M564.005 219.726C716.286 219.726 842.372 309.837 864.158 427.311C864.432 428.791 863.7 430.274 862.367 430.973L819.449 453.475C819.144 453.635 818.816 453.75 818.477 453.813L708.496 474.41C708.285 474.449 708.071 474.468 707.857 474.468H675.933C675.642 474.468 675.351 474.432 675.069 474.359L566.339 446.397C565.033 446.061 563.654 446.06 562.348 446.393L452.647 474.361C452.367 474.432 452.079 474.468 451.79 474.468H420.154C419.94 474.468 419.726 474.449 419.515 474.41L309.534 453.813C309.195 453.75 308.867 453.635 308.561 453.475L265.642 430.972C264.31 430.273 263.578 428.79 263.852 427.31C285.639 309.837 411.723 219.726 564.005 219.726ZM444.687 307.264C432.179 307.264 419.825 313.441 419.825 325.022C429.862 325.022 446.541 341.083 448.857 367.489C449.166 369.96 449.166 372.43 449.166 375.21C449.166 389.107 445.768 406.094 436.04 413.815C463.218 409.491 483.138 386.328 483.138 356.679C483.138 331.354 468.16 307.264 444.687 307.264ZM493.99 304.175C493.981 304.19 491.674 308.045 491.674 312.669C491.674 322.692 500.913 323.476 500.939 323.478V376.754C500.939 397.446 491.674 395.285 491.674 403.778C491.674 408.41 495.534 412.271 500.167 412.271C508.814 412.271 516.382 411.499 525.647 411.499C533.368 411.499 540.317 412.271 540.317 412.271C540.328 412.248 542.634 407.475 542.634 403.778C542.634 396.057 534.912 396.057 534.912 384.475V370.577C534.912 370.577 539.545 369.033 548.81 369.033C552.825 369.033 552.671 369.033 554.987 369.341C554.987 359.459 549.582 350.193 538.001 345.097L534.912 344.325V339.693C534.912 317.147 542.634 321.162 542.634 312.823C542.633 308.036 538.773 304.176 534.14 304.175H493.99ZM557.304 304.175C557.304 304.175 554.987 308.036 554.987 312.669C554.987 321.126 562.643 323.459 562.708 323.478V376.754C562.708 399.145 554.987 395.285 554.987 403.778C554.987 408.411 558.848 412.271 563.48 412.271C569.657 412.271 579.695 411.499 588.96 411.499C596.645 411.499 603.565 412.264 603.63 412.271C603.63 412.271 605.946 408.411 605.946 403.778C605.946 395.285 596.682 396.211 596.681 384.475V339.693C596.681 318.846 605.946 321.162 605.946 312.669C605.946 308.036 602.086 304.175 597.453 304.175H557.304ZM622.939 376.754C622.939 397.601 613.674 395.285 613.674 403.778C613.674 408.411 617.534 412.271 622.167 412.271C628.344 412.271 633.748 411.499 640.697 411.499C646.102 411.499 653.052 412.271 653.052 412.271C653.065 412.245 655.368 407.628 655.368 403.778C655.368 390.498 639.771 405.476 622.939 331.971V376.754ZM615.99 304.175C615.99 304.175 613.674 308.036 613.674 312.669C613.674 322.706 622.939 323.478 622.939 323.478L631.432 324.251L669.265 406.094C671.427 410.727 673.126 412.271 678.531 412.271H682.391L699.378 356.679C693.201 364.4 685.944 362.702 683.164 356.679L662.316 311.125C660.154 306.492 657.684 304.175 652.279 304.175H615.99ZM714.048 304.175V376.754C714.048 399.145 706.327 395.285 706.327 403.778C706.327 408.411 710.188 412.271 714.82 412.271C720.997 412.271 731.034 411.499 740.3 411.499C748.021 411.499 754.971 412.271 754.971 412.271C754.991 412.238 757.286 408.39 757.286 403.778C757.286 395.285 748.021 396.057 748.021 384.475V339.693C748.021 318.846 757.286 321.162 757.286 312.669C757.286 308.036 753.425 304.175 748.793 304.175H714.048ZM419.054 302.631C391.875 306.955 371.955 330.118 371.955 359.767C371.955 385.092 386.934 409.338 410.406 409.338C422.914 409.337 435.267 403.006 435.267 391.424C425.23 391.424 408.552 375.364 406.236 348.958C405.927 346.641 405.773 344.016 405.773 341.237C405.773 327.339 409.325 310.353 419.054 302.631Z" fill="white"/>
<path d="M860.97 565.351C863.753 566.489 863.867 570.388 861.156 571.688L779.617 610.785C776.127 612.458 772.934 608.023 775.627 605.244L825.909 553.356C826.895 552.338 828.402 552.023 829.713 552.56L860.97 565.351Z" fill="white"/>
<path d="M923.782 525.085L869.387 539.82C866.193 540.685 865.91 545.107 868.968 546.372L934.824 573.626C937.487 574.728 940.255 572.288 939.496 569.508L928.035 527.52C927.531 525.674 925.628 524.585 923.782 525.085Z" fill="white"/>
<path d="M783.792 562.523L723.005 578.991C721.202 579.479 720.11 581.307 720.534 583.126L729.17 620.141C729.793 622.809 733.118 623.736 735.031 621.774L787.181 568.291C789.646 565.764 787.199 561.599 783.792 562.523Z" fill="white"/>
<path d="M679.725 727.946L716.02 669.519C717.655 666.887 721.657 667.556 722.347 670.577L732.86 716.599C733.276 718.421 732.174 720.245 730.367 720.724L683.56 733.128C680.525 733.932 678.069 730.613 679.725 727.946Z" fill="white"/>
<path d="M267.845 565.351C265.062 566.489 264.948 570.388 267.659 571.688L349.198 610.785C352.688 612.458 355.881 608.023 353.188 605.244L302.906 553.356C301.92 552.338 300.413 552.023 299.102 552.56L267.845 565.351Z" fill="white"/>
<path d="M205.043 525.085L259.438 539.82C262.632 540.685 262.915 545.107 259.857 546.372L194.001 573.626C191.338 574.728 188.57 572.288 189.329 569.508L200.79 527.52C201.294 525.674 203.197 524.585 205.043 525.085Z" fill="white"/>
<path d="M345.036 562.538L405.823 579.006C407.625 579.495 408.717 581.323 408.293 583.142L399.658 620.156C399.035 622.825 395.71 623.751 393.797 621.79L341.646 568.306C339.182 565.779 341.629 561.615 345.036 562.538Z" fill="white"/>
<path d="M449.099 727.946L412.805 669.519C411.17 666.887 407.168 667.556 406.478 670.577L395.965 716.599C395.549 718.421 396.651 720.245 398.458 720.724L445.265 733.128C448.3 733.932 450.756 730.613 449.099 727.946Z" fill="white"/>
<path d="M289.633 286.628C298.346 293.936 308.276 293.748 311.321 290.703C314.834 294.217 313.007 299.885 309.213 303.679C302.093 310.799 290.195 307.988 282.513 300.306C273.519 291.312 272.535 278.243 279.468 268.687C278.859 273.981 282.934 280.211 287.15 284.426C287.993 285.27 288.836 286.019 289.633 286.628ZM308.182 279.321C299.47 272.013 289.539 272.2 286.494 275.245C282.981 271.732 284.855 266.111 288.649 262.317C295.769 255.196 307.62 257.96 315.303 265.642C324.296 274.636 325.28 287.705 318.347 297.261C318.956 291.968 314.834 285.785 310.618 281.569C309.775 280.726 309.026 279.976 308.182 279.321Z" fill="white"/>
<path d="M335.179 232.695C335.179 232.695 331.799 234.811 329.218 231.364C328.027 229.773 327.83 227.852 327.83 227.852L338.967 219.515C340.558 218.324 342.877 218.657 344.068 220.248C346.251 223.165 342.474 224.752 347.833 231.911C352.001 237.48 352.398 238.01 352.398 238.01C352.398 238.01 343.793 230.715 335.179 232.695ZM311.845 250.162C311.845 250.162 308.464 252.279 305.884 248.832C304.693 247.241 304.496 245.32 304.496 245.32L311.125 240.357C312.981 238.968 314.439 238.704 317.221 239.104L357.361 244.639L366.492 256.836L362.78 259.615C360.923 261.005 359.466 261.269 356.684 260.869L315.616 255.201L311.845 250.162ZM325.541 268.459L321.174 262.625C334.68 272.375 340.251 264.895 343.626 269.403C344.618 270.728 345.014 272.915 345.014 272.915C345.014 272.915 342.429 274.436 340.572 275.826C338.186 277.612 336.528 279.267 334.407 280.855C332.816 282.046 330.498 281.712 329.307 280.121C327.123 277.205 330.901 275.618 325.541 268.459Z" fill="white"/>
<path d="M445.562 192.933C444.7 189.295 443.868 186.494 443.057 184.322C440.858 178.426 438.852 177.406 436.208 177.332L440.553 175.711C444.898 174.091 445.659 173.1 447.459 172.428C449.942 171.502 451.522 172.327 451.72 174.374L453.4 189.303C453.552 190.66 453.163 191.512 451.611 192.091C449.439 192.901 445.562 192.933 445.562 192.933ZM434.346 178.026L446.384 210.302C448.121 214.957 451.729 213.258 453.002 216.672C453.697 218.534 453.344 220.433 453.344 220.433C453.344 220.433 450.436 221.164 447.332 222.322C443.608 223.711 439.689 225.526 436.586 226.684C434.724 227.378 432.593 226.405 431.899 224.543C430.625 221.129 434.697 220.671 431.571 212.292L420.691 183.119L434.346 178.026ZM418.332 183.999C418.332 183.999 417.272 187.223 419.572 201.92C419.725 203.277 419.335 204.129 417.784 204.708C415.611 205.518 411.734 205.55 411.734 205.55L407.341 190.927C406.601 188.375 407.425 187.36 409.597 186.55C411.769 185.74 413.367 185.851 418.332 183.999Z" fill="white"/>
<path d="M506.222 194.764C507.292 199.683 511.092 198.45 511.866 202.01C512.289 203.952 511.67 205.782 511.67 205.782C511.67 205.782 508.686 206.092 505.45 206.796C501.566 207.641 497.429 208.88 494.839 209.443C492.897 209.865 490.927 208.599 490.505 206.657C489.73 203.097 493.319 204.011 491.277 194.625L486.419 172.292C486.419 172.292 482.971 172.025 482.197 168.465C481.774 166.523 482.393 164.694 482.393 164.694L499.223 161.033C501.165 160.61 503.136 161.876 503.558 163.818C504.333 167.379 500.238 167.252 502.139 175.991L506.222 194.764ZM484.747 192.656C480.863 193.501 479.062 194.57 479.062 194.57L480.329 200.396C481.385 205.251 484.622 204.547 485.326 207.784C485.664 209.337 485.13 211.555 485.13 211.555C485.13 211.555 482.146 211.865 478.91 212.569C475.026 213.414 471.924 214.428 468.299 215.216C466.357 215.639 464.387 214.372 463.965 212.431C463.19 208.87 467.271 208.932 465.384 200.258L460.526 177.925C460.526 177.925 456.572 178.446 455.656 174.239C455.234 172.297 455.853 170.467 455.853 170.467C455.853 170.467 472.295 166.89 472.683 166.806C474.625 166.383 476.596 167.65 477.032 169.656C477.793 173.152 474.19 172.173 476.246 181.624L476.668 183.566L478.033 183.608C483.353 184.688 486.463 188.079 487.365 192.222C486.365 192.304 486.43 192.29 484.747 192.656Z" fill="white"/>
<path d="M528.918 158.082L532.226 204.336L517.358 205.399C515.376 205.541 513.606 204.007 513.464 202.025C513.204 198.391 517.24 199.098 516.602 190.178L514.971 167.381C514.971 167.381 510.983 167.334 510.676 163.039C510.534 161.057 511.407 159.334 511.407 159.334L528.918 158.082ZM540.199 171.886L540.18 167.903C540.16 160.2 531.891 157.869 531.891 157.869L540.481 157.255C545.437 156.9 545.72 156.216 547.702 156.074C550.345 155.885 551.299 157.145 550.912 159.165L549.308 169.242C548.903 171.928 547.893 172.664 546.241 172.782C544.258 172.924 540.199 171.886 540.199 171.886ZM531.515 175.828L538.123 175.356C540.436 175.19 541.498 176.11 541.663 178.423C541.947 182.388 540.201 185.833 540.201 185.833L537.864 185.668L531.515 175.828ZM544.426 193.833L547.186 185.998C551.481 185.691 554.832 186.115 554.408 189.466L553.134 199.52C552.71 202.871 551.435 203.626 549.453 203.768C547.537 203.905 546.432 203.32 540.485 203.745L535.199 204.123C535.199 204.123 542.165 200.304 544.426 193.833Z" fill="white"/>
<path d="M648.232 161.983C653.41 163.109 657.069 163.431 658.687 163.783L651.337 197.573C650.281 202.428 653.517 203.132 652.813 206.369C652.391 208.311 651.068 209.718 651.068 209.718C651.068 209.718 648.225 208.76 644.989 208.056C641.105 207.211 637.798 206.831 634.237 206.056C632.296 205.634 631.029 203.664 631.452 201.722C632.226 198.161 635.899 199.977 637.8 191.238L642.658 168.906C642.658 168.906 638.844 167.737 639.76 163.53C640.168 161.653 641.505 160.181 641.505 160.181C641.505 160.181 645.319 161.349 648.232 161.983ZM667.363 214.279C657.977 212.238 655.137 195.688 656.897 187.596C657.319 185.654 658.136 185.018 658.136 185.018C660.973 184.754 662.949 183.15 663.582 180.237C664.498 176.03 661.627 173.642 659.418 172.891C661.262 167.529 666.54 166.643 670.423 167.488C676.249 168.756 680.301 175.061 678.823 181.858C677.555 187.683 672.334 192.988 664.89 191.369C663.595 191.087 663.018 190.623 662.877 191.27C662.736 191.917 663.384 192.058 664.678 192.34C668.886 193.255 670.217 195.239 671.095 197.125L674.359 203.937C674.809 204.984 675.555 206.231 678.791 206.935C677.594 212.437 672.866 215.476 667.363 214.279Z" fill="white"/>
<path d="M704.376 215.248C707.154 207.799 707.36 193.029 707.36 193.029C707.752 186.67 699.976 182.497 701.48 178.462C701.943 177.221 703.245 176.575 704.889 176.906L717.377 179.442C717.71 179.496 718.021 179.612 718.331 179.727C720.566 180.561 721.539 182.691 721.385 187.654L720.277 219.058C720.101 224.648 723.506 225.565 722.349 228.668C721.654 230.53 720.144 231.735 720.144 231.735C720.144 231.735 717.777 230.498 714.364 229.225C710.95 227.952 705.248 226.179 702.765 225.253C700.903 224.558 699.93 222.428 700.625 220.565C701.551 218.083 702.871 219.282 704.376 215.248ZM698.739 184.864C702.173 192.72 700.565 200.251 699.768 209.782C699.177 208.713 698.463 208.164 697.78 207.909C695.111 206.914 693.518 209.289 692.893 210.965C691.967 213.448 694.839 215.226 693.797 218.019C693.102 219.881 691.593 221.085 691.593 221.085C691.593 221.085 688.915 219.733 685.812 218.576C682.708 217.418 680.11 216.803 676.075 215.298C674.213 214.603 673.24 212.473 673.935 210.611C675.903 205.335 684.134 212.647 698.739 184.864Z" fill="white"/>
<path d="M765.538 213.354C765.538 213.354 762.208 211.159 764.272 207.379C765.225 205.635 766.89 204.658 766.89 204.658L779.1 211.325C780.845 212.277 781.504 214.525 780.552 216.269C778.806 219.467 775.794 216.69 771.507 224.539C768.174 230.644 767.856 231.225 767.856 231.225C767.856 231.225 770.917 220.367 765.538 213.354ZM739.955 199.385C739.955 199.385 736.626 197.189 738.689 193.41C739.642 191.666 741.308 190.688 741.308 190.688L748.575 194.657C750.61 195.768 751.456 196.985 752.248 199.681L763.888 238.493L756.586 251.866L752.516 249.644C750.481 248.532 749.635 247.316 748.844 244.619L736.939 204.909L739.955 199.385ZM729.002 219.444L732.495 213.049C729.236 229.384 738.355 231.344 735.656 236.286C734.863 237.74 733.038 239.008 733.038 239.008C733.038 239.008 730.58 237.289 728.545 236.177C725.929 234.749 723.735 233.928 721.409 232.658C719.665 231.706 719.005 229.459 719.958 227.714C721.704 224.516 724.716 227.293 729.002 219.444Z" fill="white"/>
<path d="M817.505 240.567L820.156 242.552C821.323 243.425 821.721 244.22 820.967 245.228C820.689 245.599 820.265 245.944 819.762 246.395L810.495 254.353C809.436 255.215 808.059 255.839 806.786 254.886C804.93 253.496 803.072 250.451 803.072 250.451L808.3 244.02C808.3 244.02 806.575 241.902 803.393 239.52C801.272 237.932 799.628 237.032 797.416 236.783C797.667 236.226 797.971 235.709 798.328 235.232C800.869 231.838 806.035 229.912 812.345 234.636C815.05 236.661 817.505 240.567 817.505 240.567ZM772.452 234.977C779.598 225.431 791.944 222.426 802.959 227.609C799.209 227.533 792.654 231.646 787.851 238.063C783.444 243.95 777.559 255.35 789.438 264.242L793.011 259.469C793.011 259.469 790.293 257.021 792.675 253.839C793.866 252.248 795.653 251.517 795.653 251.517C795.653 251.517 798.107 253.768 800.228 255.356C803.94 258.135 806.79 259.854 808.912 261.442C810.503 262.633 810.769 264.488 809.578 266.079C807.593 268.731 805.537 265.95 801.17 271.784L796.406 278.148C796.406 278.148 789.118 276.829 778.777 269.088C766.579 259.957 764.513 245.583 772.452 234.977Z" fill="white"/>
<path d="M844.485 263.383L811.695 296.173L801.155 285.634C799.75 284.228 799.75 281.886 801.155 280.481C803.731 277.905 805.839 281.418 812.163 275.094L828.324 258.933C828.324 258.933 825.748 255.889 828.792 252.844C830.198 251.438 832.071 250.97 832.071 250.97L844.485 263.383ZM841.44 280.95L844.438 278.326C850.247 273.267 846.593 265.491 846.593 265.491L852.682 271.581C856.196 275.094 856.898 274.86 858.304 276.265C860.177 278.139 859.849 279.685 858.069 280.715L849.403 286.102C847.108 287.554 845.89 287.273 844.719 286.102C843.314 284.697 841.44 280.95 841.44 280.95ZM832.774 276.968L837.458 281.652C839.098 283.292 839.098 284.697 837.458 286.336C834.648 289.147 830.9 290.084 830.9 290.084L829.495 288.21L832.774 276.968ZM827.621 298.516L835.35 295.471C838.395 298.516 840.269 301.326 837.458 303.2L829.027 308.821C826.216 310.695 824.811 310.226 823.405 308.821C822.047 307.463 821.766 306.245 817.55 302.029L813.803 298.281C813.803 298.281 821.251 301.045 827.621 298.516Z" fill="white"/>
</svg>
