<svg width="256" height="256" viewBox="0 0 256 256" fill="none" xmlns="http://www.w3.org/2000/svg">
<rect x="4.01389" y="4.01389" width="247.972" height="247.972" rx="123.986" fill="#ECDFCA"/>
<rect x="4.01389" y="4.01389" width="247.972" height="247.972" rx="123.986" stroke="#2D645D" stroke-width="8.02778"/>
<path d="M57.6494 206.235V202.841C65.1175 199.899 68.9647 182.473 68.9647 150.791V103.267C68.9647 71.5838 65.1175 54.1583 57.6494 51.2164V47.8218H129.388C171.028 47.8218 188.001 59.137 188.001 89.4619C188.001 113.903 177.138 124.539 146.135 127.481V129.065C175.781 131.102 183.928 139.475 189.133 165.274C193.432 187.226 199.09 199.899 205.653 202.841V206.235H175.781C154.508 206.235 143.645 202.162 141.609 189.262L136.63 156.675C134.141 140.833 129.162 132.007 118.752 130.876V150.791C118.752 182.473 122.599 199.899 130.067 202.841V206.235H57.6494ZM122.825 124.992C133.235 124.992 139.572 109.15 139.572 87.8778C139.572 68.1892 134.141 54.6109 127.125 54.6109C121.467 54.6109 118.752 62.7579 118.752 103.267V115.713C118.752 123.181 119.204 124.992 122.825 124.992Z" fill="#2D645D"/>
</svg>
